<svg xmlns="http://www.w3.org/2000/svg" viewBox="0 0 900 80" width="900" height="80">
  <defs>
    <style>
      .w1 { animation: wave1 3s ease-in-out infinite; }
      .w2 { animation: wave2 3s ease-in-out infinite; }
      .w3 { animation: wave3 3s ease-in-out infinite; }
      .w4 { animation: wave4 3s ease-in-out infinite; }
      .w5 { animation: wave5 3s ease-in-out infinite; }
      .w6 { animation: wave6 3s ease-in-out infinite; }
      .w7 { animation: wave7 3s ease-in-out infinite; }
      .w8 { animation: wave8 3s ease-in-out infinite; }
      .w9 { animation: wave9 3s ease-in-out infinite; }

      @keyframes wave1 { 0%,100%{d:path("M0,40 Q50,15 100,40 Q150,65 200,40 Q250,15 300,40 Q350,65 400,40 Q450,15 500,40 Q550,65 600,40 Q650,15 700,40 Q750,65 800,40 Q850,15 900,40")} 50%{d:path("M0,40 Q50,65 100,40 Q150,15 200,40 Q250,65 300,40 Q350,15 400,40 Q450,65 500,40 Q550,15 600,40 Q650,65 700,40 Q750,15 800,40 Q850,65 900,40")} }
      @keyframes wave2 { 0%,100%{d:path("M0,40 Q50,18 100,40 Q150,62 200,40 Q250,18 300,40 Q350,62 400,40 Q450,18 500,40 Q550,62 600,40 Q650,18 700,40 Q750,62 800,40 Q850,18 900,40")} 50%{d:path("M0,40 Q50,62 100,40 Q150,18 200,40 Q250,62 300,40 Q350,18 400,40 Q450,62 500,40 Q550,18 600,40 Q650,62 700,40 Q750,18 800,40 Q850,62 900,40")} }
      @keyframes wave3 { 0%,100%{d:path("M0,40 Q50,22 100,40 Q150,58 200,40 Q250,22 300,40 Q350,58 400,40 Q450,22 500,40 Q550,58 600,40 Q650,22 700,40 Q750,58 800,40 Q850,22 900,40")} 50%{d:path("M0,40 Q50,58 100,40 Q150,22 200,40 Q250,58 300,40 Q350,22 400,40 Q450,58 500,40 Q550,22 600,40 Q650,58 700,40 Q750,22 800,40 Q850,58 900,40")} }
      @keyframes wave4 { 0%,100%{d:path("M0,40 Q50,26 100,40 Q150,54 200,40 Q250,26 300,40 Q350,54 400,40 Q450,26 500,40 Q550,54 600,40 Q650,26 700,40 Q750,54 800,40 Q850,26 900,40")} 50%{d:path("M0,40 Q50,54 100,40 Q150,26 200,40 Q250,54 300,40 Q350,26 400,40 Q450,54 500,40 Q550,26 600,40 Q650,54 700,40 Q750,26 800,40 Q850,54 900,40")} }
      @keyframes wave5 { 0%,100%{d:path("M0,40 Q50,30 100,40 Q150,50 200,40 Q250,30 300,40 Q350,50 400,40 Q450,30 500,40 Q550,50 600,40 Q650,30 700,40 Q750,50 800,40 Q850,30 900,40")} 50%{d:path("M0,40 Q50,50 100,40 Q150,30 200,40 Q250,50 300,40 Q350,30 400,40 Q450,50 500,40 Q550,30 600,40 Q650,50 700,40 Q750,30 800,40 Q850,50 900,40")} }
      @keyframes wave6 { 0%,100%{d:path("M0,40 Q50,33 100,40 Q150,47 200,40 Q250,33 300,40 Q350,47 400,40 Q450,33 500,40 Q550,47 600,40 Q650,33 700,40 Q750,47 800,40 Q850,33 900,40")} 50%{d:path("M0,40 Q50,47 100,40 Q150,33 200,40 Q250,47 300,40 Q350,33 400,40 Q450,47 500,40 Q550,33 600,40 Q650,47 700,40 Q750,33 800,40 Q850,47 900,40")} }
      @keyframes wave7 { 0%,100%{d:path("M0,40 Q50,35 100,40 Q150,45 200,40 Q250,35 300,40 Q350,45 400,40 Q450,35 500,40 Q550,45 600,40 Q650,35 700,40 Q750,45 800,40 Q850,35 900,40")} 50%{d:path("M0,40 Q50,45 100,40 Q150,35 200,40 Q250,45 300,40 Q350,35 400,40 Q450,45 500,40 Q550,35 600,40 Q650,45 700,40 Q750,35 800,40 Q850,45 900,40")} }
      @keyframes wave8 { 0%,100%{d:path("M0,40 Q50,37 100,40 Q150,43 200,40 Q250,37 300,40 Q350,43 400,40 Q450,37 500,40 Q550,43 600,40 Q650,37 700,40 Q750,43 800,40 Q850,37 900,40")} 50%{d:path("M0,40 Q50,43 100,40 Q150,37 200,40 Q250,43 300,40 Q350,37 400,40 Q450,43 500,40 Q550,37 600,40 Q650,43 700,40 Q750,37 800,40 Q850,43 900,40")} }
      @keyframes wave9 { 0%,100%{d:path("M0,40 Q50,38 100,40 Q150,42 200,40 Q250,38 300,40 Q350,42 400,40 Q450,38 500,40 Q550,42 600,40 Q650,38 700,40 Q750,42 800,40 Q850,38 900,40")} 50%{d:path("M0,40 Q50,42 100,40 Q150,38 200,40 Q250,42 300,40 Q350,38 400,40 Q450,42 500,40 Q550,38 600,40 Q650,42 700,40 Q750,38 800,40 Q850,42 900,40")} }
    </style>
  </defs>

  <!-- 9 wave lines from outermost (brightest) to innermost (faintest) — violet palette -->
  <path class="w1" d="M0,40 Q50,15 100,40 Q150,65 200,40 Q250,15 300,40 Q350,65 400,40 Q450,15 500,40 Q550,65 600,40 Q650,15 700,40 Q750,65 800,40 Q850,15 900,40" fill="none" stroke="#BF00FF" stroke-width="0.8" opacity="0.9" style="animation-delay:0s"/>
  <path class="w2" d="M0,40 Q50,18 100,40 Q150,62 200,40 Q250,18 300,40 Q350,62 400,40 Q450,18 500,40 Q550,62 600,40 Q650,18 700,40 Q750,62 800,40 Q850,18 900,40" fill="none" stroke="#BF00FF" stroke-width="0.8" opacity="0.78" style="animation-delay:0.15s"/>
  <path class="w3" d="M0,40 Q50,22 100,40 Q150,58 200,40 Q250,22 300,40 Q350,58 400,40 Q450,22 500,40 Q550,58 600,40 Q650,22 700,40 Q750,58 800,40 Q850,22 900,40" fill="none" stroke="#BF00FF" stroke-width="0.7" opacity="0.65" style="animation-delay:0.3s"/>
  <path class="w4" d="M0,40 Q50,26 100,40 Q150,54 200,40 Q250,26 300,40 Q350,54 400,40 Q450,26 500,40 Q550,54 600,40 Q650,26 700,40 Q750,54 800,40 Q850,26 900,40" fill="none" stroke="#BF00FF" stroke-width="0.7" opacity="0.52" style="animation-delay:0.45s"/>
  <path class="w5" d="M0,40 Q50,30 100,40 Q150,50 200,40 Q250,30 300,40 Q350,50 400,40 Q450,30 500,40 Q550,50 600,40 Q650,30 700,40 Q750,50 800,40 Q850,30 900,40" fill="none" stroke="#BF00FF" stroke-width="0.6" opacity="0.42" style="animation-delay:0.6s"/>
  <path class="w6" d="M0,40 Q50,33 100,40 Q150,47 200,40 Q250,33 300,40 Q350,47 400,40 Q450,33 500,40 Q550,47 600,40 Q650,33 700,40 Q750,47 800,40 Q850,33 900,40" fill="none" stroke="#BF00FF" stroke-width="0.6" opacity="0.32" style="animation-delay:0.75s"/>
  <path class="w7" d="M0,40 Q50,35 100,40 Q150,45 200,40 Q250,35 300,40 Q350,45 400,40 Q450,35 500,40 Q550,45 600,40 Q650,35 700,40 Q750,45 800,40 Q850,35 900,40" fill="none" stroke="#BF00FF" stroke-width="0.5" opacity="0.22" style="animation-delay:0.9s"/>
  <path class="w8" d="M0,40 Q50,37 100,40 Q150,43 200,40 Q250,37 300,40 Q350,43 400,40 Q450,37 500,40 Q550,43 600,40 Q650,37 700,40 Q750,43 800,40 Q850,37 900,40" fill="none" stroke="#BF00FF" stroke-width="0.5" opacity="0.14" style="animation-delay:1.05s"/>
  <path class="w9" d="M0,40 Q50,38 100,40 Q150,42 200,40 Q250,38 300,40 Q350,42 400,40 Q450,38 500,40 Q550,42 600,40 Q650,38 700,40 Q750,42 800,40 Q850,38 900,40" fill="none" stroke="#BF00FF" stroke-width="0.4" opacity="0.07" style="animation-delay:1.2s"/>
</svg>
